<svg xmlns="http://www.w3.org/2000/svg" xmlns:xlink="http://www.w3.org/1999/xlink" width="500" zoomAndPan="magnify" viewBox="0 0 375 374.999991" height="500" preserveAspectRatio="xMidYMid meet" version="1.0"><defs><g/></defs><g fill="#00bfa6" fill-opacity="1"><g transform="translate(108.021127, 196.072872)"><g><path d="M 3.589844 0 L 3.589844 -0.273438 C 2.707031 -0.273438 2.078125 -0.777344 2.457031 -1.679688 L 3.839844 -5.015625 L 9.882812 -5.015625 L 11.078125 -2.097656 C 11.5 -1.089844 11.4375 -0.273438 10.34375 -0.273438 L 9.777344 -0.273438 L 9.777344 0 L 15.675781 0 L 15.675781 -0.273438 C 14.625 -0.273438 13.976562 -0.734375 13.386719 -2.121094 L 7.867188 -15.296875 L 4.195312 -15.296875 L 4.195312 -15.023438 C 5.035156 -15.023438 5.792969 -14.816406 6.128906 -13.976562 L 6.714844 -12.546875 L 2.140625 -1.59375 C 1.824219 -0.839844 1.007812 -0.273438 0.316406 -0.273438 L 0.316406 0 Z M 6.863281 -12.234375 L 9.757812 -5.289062 L 3.964844 -5.289062 Z M 6.863281 -12.234375 "/></g></g></g><g fill="#00bfa6" fill-opacity="1"><g transform="translate(133.768436, 196.072872)"><g><path d="M 0.839844 -15.023438 C 1.847656 -15.023438 2.328125 -14.898438 2.328125 -13.765625 L 2.328125 -5.457031 C 2.328125 -2.183594 3.714844 0.25 8.183594 0.25 C 13.09375 0.25 13.511719 -3.292969 13.511719 -5.308594 L 13.511719 -13.765625 C 13.511719 -14.898438 14.226562 -15.023438 15.003906 -15.023438 L 15.003906 -15.296875 L 11.75 -15.296875 L 11.75 -15.023438 C 12.695312 -15.023438 13.179688 -14.898438 13.242188 -13.976562 L 13.242188 -5.308594 C 13.242188 -1.320312 11.351562 -0.230469 8.6875 -0.230469 C 6.167969 -0.230469 4.636719 -1.953125 4.636719 -5.457031 L 4.636719 -13.765625 C 4.636719 -14.898438 5.121094 -15.023438 6.128906 -15.023438 L 6.128906 -15.296875 L 0.839844 -15.296875 Z M 0.839844 -15.023438 "/></g></g></g><g fill="#00bfa6" fill-opacity="1"><g transform="translate(159.054129, 196.072872)"><g><path d="M 0.691406 -11.332031 C 1.21875 -14.144531 2.832031 -15.023438 5.078125 -15.023438 L 6.609375 -15.023438 L 6.609375 -1.40625 C 6.609375 -0.441406 6.167969 -0.273438 5.160156 -0.273438 L 5.160156 0 L 10.386719 0 L 10.386719 -0.273438 C 9.378906 -0.273438 8.917969 -0.441406 8.917969 -1.40625 L 8.917969 -15.023438 L 10.429688 -15.023438 C 12.695312 -15.023438 14.3125 -14.144531 14.835938 -11.332031 L 15.109375 -11.332031 L 14.414062 -15.296875 L 1.113281 -15.296875 L 0.417969 -11.332031 Z M 0.691406 -11.332031 "/></g></g></g><g fill="#00bfa6" fill-opacity="1"><g transform="translate(184.339821, 196.072872)"><g><path d="M 0.628906 0 L 5.832031 0 L 5.832031 -0.273438 C 4.910156 -0.273438 4.449219 -0.398438 4.386719 -1.195312 L 4.386719 -7.742188 L 10.828125 -7.742188 L 10.828125 -1.40625 C 10.828125 -0.417969 10.367188 -0.273438 9.359375 -0.273438 L 9.359375 0 L 14.582031 0 L 14.582031 -0.273438 C 13.578125 -0.273438 13.136719 -0.417969 13.136719 -1.363281 L 13.136719 -13.890625 C 13.136719 -14.878906 13.578125 -15.023438 14.582031 -15.023438 L 14.582031 -15.296875 L 9.359375 -15.296875 L 9.359375 -15.023438 C 10.367188 -15.023438 10.828125 -14.878906 10.828125 -13.890625 L 10.828125 -8.015625 L 4.386719 -8.015625 L 4.386719 -13.953125 C 4.40625 -14.878906 4.847656 -15.023438 5.832031 -15.023438 L 5.832031 -15.296875 L 0.628906 -15.296875 L 0.628906 -15.023438 C 1.636719 -15.023438 2.078125 -14.878906 2.078125 -13.890625 L 2.078125 -1.40625 C 2.078125 -0.417969 1.636719 -0.273438 0.628906 -0.273438 Z M 0.628906 0 "/></g></g></g><g fill="#00bfa6" fill-opacity="1"><g transform="translate(209.310772, 196.072872)"><g><path d="M 2.078125 -1.40625 C 2.078125 -0.417969 1.636719 -0.273438 0.628906 -0.273438 L 0.628906 0 L 5.855469 0 L 5.832031 -0.273438 C 4.847656 -0.273438 4.386719 -0.417969 4.386719 -1.40625 L 4.386719 -13.890625 C 4.386719 -14.878906 4.847656 -15.023438 5.855469 -15.023438 L 5.855469 -15.296875 L 0.628906 -15.296875 L 0.628906 -15.023438 C 1.636719 -15.023438 2.078125 -14.878906 2.078125 -13.890625 Z M 2.078125 -1.40625 "/></g></g></g><g fill="#00bfa6" fill-opacity="1"><g transform="translate(225.552969, 196.072872)"><g><path d="M 0.628906 0 L 5.832031 0 L 5.832031 -0.273438 C 4.828125 -0.273438 4.386719 -0.441406 4.386719 -1.40625 L 4.386719 -7.742188 L 6.210938 -7.742188 L 9.882812 -2.414062 C 10.679688 -1.257812 11.644531 0 13.386719 0 L 15.464844 0 L 15.464844 -0.273438 C 14.667969 -0.273438 13.976562 -0.503906 13.347656 -1.40625 L 9.570312 -6.882812 C 9.253906 -6.632812 8.875 -6.484375 8.476562 -6.484375 C 7.804688 -6.484375 7.070312 -6.882812 6.527344 -7.742188 L 7.40625 -7.742188 C 9.863281 -7.742188 12.925781 -8.269531 12.925781 -11.5625 C 12.925781 -14.917969 9.695312 -15.296875 6.589844 -15.296875 L 0.628906 -15.296875 L 0.628906 -15.023438 C 1.617188 -15.023438 2.078125 -14.878906 2.078125 -13.890625 L 2.078125 -1.40625 C 2.078125 -0.441406 1.617188 -0.273438 0.628906 -0.273438 Z M 4.386719 -8.015625 L 4.386719 -15.023438 L 7.007812 -15.023438 C 9.335938 -15.023438 10.640625 -13.808594 10.640625 -11.542969 C 10.640625 -8.730469 8.835938 -8.015625 6.609375 -8.015625 Z M 4.386719 -8.015625 "/></g></g></g><g fill="#00bfa6" fill-opacity="1"><g transform="translate(250.985536, 196.072872)"><g><path d="M 3.589844 0 L 3.589844 -0.273438 C 2.707031 -0.273438 2.078125 -0.777344 2.457031 -1.679688 L 3.839844 -5.015625 L 9.882812 -5.015625 L 11.078125 -2.097656 C 11.5 -1.089844 11.4375 -0.273438 10.34375 -0.273438 L 9.777344 -0.273438 L 9.777344 0 L 15.675781 0 L 15.675781 -0.273438 C 14.625 -0.273438 13.976562 -0.734375 13.386719 -2.121094 L 7.867188 -15.296875 L 4.195312 -15.296875 L 4.195312 -15.023438 C 5.035156 -15.023438 5.792969 -14.816406 6.128906 -13.976562 L 6.714844 -12.546875 L 2.140625 -1.59375 C 1.824219 -0.839844 1.007812 -0.273438 0.316406 -0.273438 L 0.316406 0 Z M 6.863281 -12.234375 L 9.757812 -5.289062 L 3.964844 -5.289062 Z M 6.863281 -12.234375 "/></g></g></g></svg>