<svg xmlns="http://www.w3.org/2000/svg" xmlns:xlink="http://www.w3.org/1999/xlink" width="500" zoomAndPan="magnify" viewBox="0 0 375 374.999991" height="500" preserveAspectRatio="xMidYMid meet" version="1.0"><defs><g/></defs><g fill="#000000" fill-opacity="1"><g transform="translate(104.181725, 195.724996)"><g><path d="M 3.761719 0 L 3.761719 -0.285156 C 2.835938 -0.285156 2.179688 -0.8125 2.574219 -1.761719 L 4.027344 -5.257812 L 10.359375 -5.257812 L 11.613281 -2.199219 C 12.054688 -1.144531 11.988281 -0.285156 10.84375 -0.285156 L 10.25 -0.285156 L 10.25 0 L 16.433594 0 L 16.433594 -0.285156 C 15.332031 -0.285156 14.648438 -0.769531 14.035156 -2.222656 L 8.25 -16.035156 L 4.398438 -16.035156 L 4.398438 -15.75 C 5.28125 -15.75 6.070312 -15.53125 6.421875 -14.648438 L 7.039062 -13.15625 L 2.242188 -1.671875 C 1.914062 -0.878906 1.054688 -0.285156 0.328125 -0.285156 L 0.328125 0 Z M 7.191406 -12.824219 L 10.230469 -5.542969 L 4.15625 -5.542969 Z M 7.191406 -12.824219 "/></g></g></g><g fill="#000000" fill-opacity="1"><g transform="translate(131.172694, 195.724996)"><g><path d="M 0.878906 -15.75 C 1.9375 -15.75 2.441406 -15.617188 2.441406 -14.429688 L 2.441406 -5.71875 C 2.441406 -2.289062 3.894531 0.265625 8.578125 0.265625 C 13.726562 0.265625 14.167969 -3.453125 14.167969 -5.566406 L 14.167969 -14.429688 C 14.167969 -15.617188 14.914062 -15.75 15.726562 -15.75 L 15.726562 -16.035156 L 12.320312 -16.035156 L 12.320312 -15.75 C 13.308594 -15.75 13.8125 -15.617188 13.878906 -14.648438 L 13.878906 -5.566406 C 13.878906 -1.386719 11.902344 -0.242188 9.105469 -0.242188 C 6.46875 -0.242188 4.863281 -2.046875 4.863281 -5.71875 L 4.863281 -14.429688 C 4.863281 -15.617188 5.367188 -15.75 6.421875 -15.75 L 6.421875 -16.035156 L 0.878906 -16.035156 Z M 0.878906 -15.75 "/></g></g></g><g fill="#000000" fill-opacity="1"><g transform="translate(157.679749, 195.724996)"><g><path d="M 0.726562 -11.878906 C 1.277344 -14.828125 2.96875 -15.75 5.324219 -15.75 L 6.929688 -15.75 L 6.929688 -1.472656 C 6.929688 -0.460938 6.46875 -0.285156 5.410156 -0.285156 L 5.410156 0 L 10.890625 0 L 10.890625 -0.285156 C 9.832031 -0.285156 9.347656 -0.460938 9.347656 -1.472656 L 9.347656 -15.75 L 10.933594 -15.75 C 13.308594 -15.75 15.003906 -14.828125 15.550781 -11.878906 L 15.839844 -11.878906 L 15.113281 -16.035156 L 1.164062 -16.035156 L 0.441406 -11.878906 Z M 0.726562 -11.878906 "/></g></g></g><g fill="#000000" fill-opacity="1"><g transform="translate(184.186805, 195.724996)"><g><path d="M 0.660156 0 L 6.117188 0 L 6.117188 -0.285156 C 5.148438 -0.285156 4.664062 -0.417969 4.597656 -1.253906 L 4.597656 -8.117188 L 11.351562 -8.117188 L 11.351562 -1.472656 C 11.351562 -0.441406 10.867188 -0.285156 9.8125 -0.285156 L 9.8125 0 L 15.289062 0 L 15.289062 -0.285156 C 14.230469 -0.285156 13.769531 -0.441406 13.769531 -1.429688 L 13.769531 -14.5625 C 13.769531 -15.597656 14.230469 -15.75 15.289062 -15.75 L 15.289062 -16.035156 L 9.8125 -16.035156 L 9.8125 -15.75 C 10.867188 -15.75 11.351562 -15.597656 11.351562 -14.5625 L 11.351562 -8.402344 L 4.597656 -8.402344 L 4.597656 -14.628906 C 4.621094 -15.597656 5.082031 -15.75 6.117188 -15.75 L 6.117188 -16.035156 L 0.660156 -16.035156 L 0.660156 -15.75 C 1.714844 -15.75 2.179688 -15.597656 2.179688 -14.5625 L 2.179688 -1.472656 C 2.179688 -0.441406 1.714844 -0.285156 0.660156 -0.285156 Z M 0.660156 0 "/></g></g></g><g fill="#000000" fill-opacity="1"><g transform="translate(210.363916, 195.724996)"><g><path d="M 2.179688 -1.472656 C 2.179688 -0.441406 1.714844 -0.285156 0.660156 -0.285156 L 0.660156 0 L 6.136719 0 L 6.117188 -0.285156 C 5.082031 -0.285156 4.597656 -0.441406 4.597656 -1.472656 L 4.597656 -14.5625 C 4.597656 -15.597656 5.082031 -15.75 6.136719 -15.75 L 6.136719 -16.035156 L 0.660156 -16.035156 L 0.660156 -15.75 C 1.714844 -15.75 2.179688 -15.597656 2.179688 -14.5625 Z M 2.179688 -1.472656 "/></g></g></g><g fill="#000000" fill-opacity="1"><g transform="translate(227.390652, 195.724996)"><g><path d="M 0.660156 0 L 6.117188 0 L 6.117188 -0.285156 C 5.058594 -0.285156 4.597656 -0.460938 4.597656 -1.472656 L 4.597656 -8.117188 L 6.511719 -8.117188 L 10.359375 -2.53125 C 11.195312 -1.320312 12.207031 0 14.035156 0 L 16.210938 0 L 16.210938 -0.285156 C 15.375 -0.285156 14.648438 -0.527344 13.992188 -1.472656 L 10.03125 -7.214844 C 9.699219 -6.953125 9.304688 -6.796875 8.886719 -6.796875 C 8.183594 -6.796875 7.414062 -7.214844 6.839844 -8.117188 L 7.765625 -8.117188 C 10.339844 -8.117188 13.550781 -8.667969 13.550781 -12.121094 C 13.550781 -15.640625 10.164062 -16.035156 6.90625 -16.035156 L 0.660156 -16.035156 L 0.660156 -15.75 C 1.695312 -15.75 2.179688 -15.597656 2.179688 -14.5625 L 2.179688 -1.472656 C 2.179688 -0.460938 1.695312 -0.285156 0.660156 -0.285156 Z M 4.597656 -8.402344 L 4.597656 -15.75 L 7.347656 -15.75 C 9.789062 -15.75 11.152344 -14.472656 11.152344 -12.097656 C 11.152344 -9.152344 9.261719 -8.402344 6.929688 -8.402344 Z M 4.597656 -8.402344 "/></g></g></g><g fill="#000000" fill-opacity="1"><g transform="translate(254.051676, 195.724996)"><g><path d="M 3.761719 0 L 3.761719 -0.285156 C 2.835938 -0.285156 2.179688 -0.8125 2.574219 -1.761719 L 4.027344 -5.257812 L 10.359375 -5.257812 L 11.613281 -2.199219 C 12.054688 -1.144531 11.988281 -0.285156 10.84375 -0.285156 L 10.25 -0.285156 L 10.25 0 L 16.433594 0 L 16.433594 -0.285156 C 15.332031 -0.285156 14.648438 -0.769531 14.035156 -2.222656 L 8.25 -16.035156 L 4.398438 -16.035156 L 4.398438 -15.75 C 5.28125 -15.75 6.070312 -15.53125 6.421875 -14.648438 L 7.039062 -13.15625 L 2.242188 -1.671875 C 1.914062 -0.878906 1.054688 -0.285156 0.328125 -0.285156 L 0.328125 0 Z M 7.191406 -12.824219 L 10.230469 -5.542969 L 4.15625 -5.542969 Z M 7.191406 -12.824219 "/></g></g></g></svg>